HIERARCHY
ROOT Hips
{
  OFFSET -33.9132 29.2015 117.021
  CHANNELS 6 Xposition Yposition Zposition Zrotation Xrotation Yrotation
  JOINT LeftUpLeg
  {
    OFFSET 8.64259 1.95398 -2.38835
    CHANNELS 3 Zrotation Xrotation Yrotation
    JOINT LeftLeg
    {
      OFFSET 43.7702 0 0
      CHANNELS 3 Zrotation Xrotation Yrotation
      JOINT LeftFoot
      {
        OFFSET 40.6238 0 0
        CHANNELS 3 Zrotation Xrotation Yrotation
        JOINT LeftToeBase
        {
          OFFSET 12.7242 0 0
          CHANNELS 3 Zrotation Xrotation Yrotation
          End Site
          {
            OFFSET 0 0 0
          }
        }
      }
    }
  }
  JOINT RightUpLeg
  {
    OFFSET -8.2249 1.95398 -2.59336
    CHANNELS 3 Zrotation Xrotation Yrotation
    JOINT RightLeg
    {
      OFFSET 43.5653 0 0
      CHANNELS 3 Zrotation Xrotation Yrotation
      JOINT RightFoot
      {
        OFFSET 40.6238 0 0
        CHANNELS 3 Zrotation Xrotation Yrotation
        JOINT RightToeBase
        {
          OFFSET 12.7242 0 0
          CHANNELS 3 Zrotation Xrotation Yrotation
          End Site
          {
            OFFSET 0 0 0
          }
        }
      }
    }
  }
  JOINT Spine
  {
    OFFSET 0.165834 0.87714 6.61349
    CHANNELS 3 Zrotation Xrotation Yrotation
    JOINT Spine1
    {
      OFFSET 7.38963 1.71661e-005 0
      CHANNELS 3 Zrotation Xrotation Yrotation
      JOINT Spine2
      {
        OFFSET 11.9445 1.14441e-005 0
        CHANNELS 3 Zrotation Xrotation Yrotation
        JOINT Spine3
        {
          OFFSET 14.7254 4.19617e-005 0
          CHANNELS 3 Zrotation Xrotation Yrotation
          JOINT Spine4
          {
            OFFSET 10.9679 0 0
            CHANNELS 3 Zrotation Xrotation Yrotation
            JOINT RightShoulder
            {
              OFFSET 2.46616 -1.6653 3.69651
              CHANNELS 3 Zrotation Xrotation Yrotation
              JOINT RightArm
              {
                OFFSET 13.0012 0 0
                CHANNELS 3 Zrotation Xrotation Yrotation
                JOINT RightForeArm
                {
                  OFFSET 28.7848 1.62311e-005 0
                  CHANNELS 3 Zrotation Xrotation Yrotation
                  JOINT RightHand
                  {
                    OFFSET 26.5688 1.62095e-005 0
                    CHANNELS 3 Zrotation Xrotation Yrotation
                    End Site
                    {
                      OFFSET 0 0 0
                    }
                  }
                }
              }
            }
            JOINT LeftShoulder
            {
              OFFSET 2.38034 -1.29275 -3.7523
              CHANNELS 3 Zrotation Xrotation Yrotation
              JOINT LeftArm
              {
                OFFSET 16.3182 6.07031e-005 0
                CHANNELS 3 Zrotation Xrotation Yrotation
                JOINT LeftForeArm
                {
                  OFFSET 27.0901 0 0
                  CHANNELS 3 Zrotation Xrotation Yrotation
                  JOINT LeftHand
                  {
                    OFFSET 24.5451 1.51738e-005 0
                    CHANNELS 3 Zrotation Xrotation Yrotation
                    End Site
                    {
                      OFFSET 0 0 0
                    }
                  }
                }
              }
            }
            JOINT Neck
            {
              OFFSET 5.0226 -0.0266342 0
              CHANNELS 3 Zrotation Xrotation Yrotation
              JOINT Head
              {
                OFFSET 6.69364 2.86102e-005 0
                CHANNELS 3 Zrotation Xrotation Yrotation
                End Site
                {
                  OFFSET 0 0 0
                }
              }
            }
          }
        }
      }
    }
  }
}
MOTION
Frames:	9
Frame Time:	0.0416667
32.8337 100.463 27.322 -150.914 -79.9526 -151.775 -174.365 -2.54846 88.2462 -19.5344 7.49402 -0.236283 74.3924 7.93727 -3.21377 13.5065 -12.1686 7.60928 172.752 -6.37978 88.0297 -10.3113 -17.1555 -1.11658 68.3968 -7.14831 -1.52868 24.213 1.18637 3.16016 0.310128 7.58718 -90.0275 11.6999 0.603988 -0.118131 0.0291425 0.598203 -0.1446 -22.5071 0.611561 0.0688648 -2.4945 0.611555 0.0688568 92.1273 -28.1578 -103.127 54.3942 2.34295 -6.50158 -5.49731 -44.779 -5.57061 -19.956 1.49053 -13.983 -87.7783 -50.0417 82.0643 -24.5685 -6.11351 -16.5383 -12.4194 30.4947 -0.0156667 7.56332 -0.543452 -12.5423 5.08272 -0.714817 -0.961387 -9.8799 -0.680578 2.45526 
32.7571 100.247 27.0859 -148.197 -80.7116 -149.113 -174.986 -1.42404 87.8248 -19.8734 8.27629 0.197626 74.5555 8.4569 -1.64212 14.3576 -12.0977 8.32026 173.359 -5.61026 88.3588 -10.4281 -20.6776 -1.59127 68.0553 -7.52585 -4.47487 24.6336 1.48011 1.51544 0.355416 7.43178 -90 12.0107 0.706679 -0.0768634 0.339971 0.702608 -0.107892 -22.1967 0.697101 0.13908 -2.18404 0.697111 0.13909 92.0384 -28.4556 -103.209 54.0331 2.80199 -5.70229 -5.39878 -43.4252 -5.5094 -19.7276 2.25338 -18.5863 -88.0583 -50.0863 81.652 -24.2818 -6.11926 -15.9012 -12.3108 32.1036 -0.0159365 4.7439 -0.225248 -12.4893 3.81234 -0.895047 -1.61441 -9.08262 -0.795089 3.44253 
32.711 100.254 26.9715 -149.234 -80.4187 -150.085 -174.855 -1.65396 87.9536 -19.969 8.2522 0.143635 74.7616 8.57241 -1.67565 14.5557 -12.2111 8.69104 173.368 -5.97154 88.4444 -10.2377 -20.6867 -1.58123 67.9912 -7.57189 -4.72589 24.4555 1.47805 1.79499 0.385325 7.48258 -89.9994 11.9092 0.766515 -0.0813625 0.238485 0.762194 -0.115024 -22.2984 0.755533 0.152786 -2.28579 0.755528 0.152778 92.0415 -28.5125 -103.183 53.9468 2.75963 -5.92347 -5.44114 -44.0146 -5.53535 -19.2719 2.09216 -17.9264 -88.1666 -49.8058 81.4381 -24.5495 -6.29449 -16.0384 -12.1856 32.7712 -0.0160549 4.21839 -0.243525 -13.7589 3.75122 -0.793817 -1.25388 -8.70964 -0.710515 2.75872 
32.666 100.25 26.8902 -149.091 -80.3481 -150.002 -174.928 -1.71914 87.8886 -19.8479 8.19338 0.207759 74.5953 8.49482 -1.5606 14.5639 -11.894 8.20513 173.383 -5.9206 88.4395 -10.3978 -20.9862 -1.61861 67.9692 -7.54686 -4.84957 24.3647 1.6812 1.24211 0.390049 7.48339 -90.0241 11.9078 0.764307 -0.13023 0.237069 0.757839 -0.163755 -22.2999 0.768107 0.105512 -2.28724 0.768112 0.105513 92.2605 -28.2337 -102.827 53.5038 2.96823 -5.896 -5.59446 -46.0543 -5.63284 -18.4824 2.18741 -19.1184 -88.2361 -50.589 81.4778 -23.8356 -6.08409 -15.9583 -12.3661 32.014 -0.0159209 4.42895 -0.266969 -13.5161 3.95212 -0.838237 -1.00249 -9.27421 -0.821415 2.96359 
32.6674 100.264 26.8014 -149.18 -80.4242 -150.114 -175.041 -1.58133 87.7932 -19.8979 8.13108 0.300049 74.6574 8.48188 -1.72321 14.271 -12.1789 8.36274 173.328 -5.61956 88.369 -10.6914 -20.4966 -1.55168 68.0941 -7.48463 -4.24679 24.5664 1.50369 1.53669 0.364353 7.47444 -90.0257 11.9256 0.712386 -0.128134 0.254826 0.706055 -0.159377 -22.2819 0.717961 0.0919078 -2.26925 0.717957 0.0918957 92.3479 -28.0884 -102.695 53.35 2.95787 -6.11687 -5.73552 -47.8137 -5.7264 -17.5985 2.08267 -19.1574 -88.1694 -50.808 81.6173 -23.5439 -5.84737 -16.1089 -12.5419 31.7204 -0.0158702 4.25377 -0.240965 -13.4126 4.40639 -0.804931 -0.885072 -9.63529 -0.81913 3.04122 
32.6308 100.261 26.7904 -149.381 -80.2058 -150.305 -174.936 -1.74881 87.8718 -19.9496 8.17398 0.219542 74.5382 8.44851 -1.49011 14.5996 -11.8655 8.19512 173.398 -5.91741 88.4257 -10.5354 -20.6672 -1.6456 68.059 -7.53737 -4.53776 24.3659 1.53183 1.74898 0.376401 7.4977 -90.0277 11.8791 0.735505 -0.133999 0.208358 0.728898 -0.166247 -22.3285 0.741766 0.0932577 -2.31582 0.741772 0.0932588 92.2692 -28.0818 -102.86 53.3038 2.996 -6.06848 -5.6926 -47.2899 -5.69759 -17.0179 2.10303 -19.7958 -88.1854 -50.5933 81.5544 -23.8344 -5.87024 -16.153 -12.4727 31.8614 -0.0158944 4.29716 -0.251294 -13.5271 4.38177 -0.871041 -1.0343 -9.26512 -0.856681 3.19199 
32.6049 100.27 26.7631 -149.329 -80.1183 -150.296 -174.879 -1.80036 87.9084 -19.9785 7.97761 0.169426 74.6344 8.37155 -1.9389 14.4557 -12.2197 8.60716 173.38 -6.03587 88.3991 -10.4468 -20.8195 -1.66558 68.1081 -7.62846 -4.74283 24.1116 1.66157 1.69683 0.357009 7.49831 -90.0131 11.8778 0.703795 -0.101615 0.207037 0.698642 -0.132501 -22.3296 0.701796 0.114612 -2.31698 0.701792 0.114607 92.0121 -28.2045 -103.348 53.2479 3.02584 -6.0554 -5.65877 -46.8708 -5.67507 -17.5983 2.11672 -19.3824 -88.0102 -50.4875 81.7967 -23.8947 -5.82135 -16.0493 -12.4987 31.6189 -0.0158529 4.18372 -0.260676 -13.84 4.45411 -0.823529 -1.08267 -9.34901 -0.807946 3.28068 
32.5686 100.268 26.7427 -150.077 -80.028 -150.921 -174.792 -1.93513 88.0761 -19.9794 8.33612 0.171468 74.6703 8.51151 -1.6373 14.3839 -12.0982 8.34725 173.446 -6.12921 88.525 -10.547 -20.4042 -1.64602 68.1327 -7.56327 -4.39843 24.2229 1.64578 1.581 0.341741 7.52147 -90.0225 11.8315 0.669083 -0.116109 0.160687 0.66333 -0.145448 -22.3758 0.673039 0.0903529 -2.3632 0.673046 0.0903594 92.0487 -28.203 -103.273 53.4614 2.83534 -6.31698 -5.69615 -47.3346 -5.69991 -18.0828 1.98568 -18.1378 -87.8752 -50.541 82.0077 -23.7861 -5.7323 -16.2677 -12.5338 31.3183 -0.0158021 4.14043 -0.241437 -13.5468 4.60942 -0.700616 -0.85441 -9.16393 -0.693894 2.79843 
32.5743 100.25 26.7055 -149.333 -79.9488 -150.262 -174.936 -1.88658 87.8909 -20.0288 7.86805 0.269135 74.578 8.39648 -1.80861 14.5878 -11.8483 8.1561 173.346 -5.93672 88.3979 -10.8353 -21.1508 -1.6128 67.9309 -7.41608 -4.67208 24.7424 1.53622 1.15095 0.382495 7.48553 -90.0259 11.9035 0.748375 -0.132151 0.232714 0.741842 -0.164967 -22.3042 0.753486 0.098886 -2.29151 0.753494 0.0988927 92.1623 -27.8962 -103.144 53.4922 2.92168 -6.03978 -5.67813 -47.111 -5.68794 -17.1454 2.07188 -19.4715 -88.1719 -50.7004 81.5942 -23.7658 -5.89943 -16.0489 -12.4659 31.4824 -0.0158297 4.00526 -0.230201 -13.594 4.0623 -0.83562 -0.567183 -8.99152 -0.877422 2.79683 
